# xmcd CD database file
#
# Track frame offsets:
#	150
#	16126
#	29545
#	40862
#	56164
#	72294
#	85440
#	103743
#	119196
#	133831
#	145787
#	181580
#	192822
#	202999
#	220228
#	234707
#	256718
#	267667
#
# Disc length: 3834 seconds
#
# Revision: 2
# Processed by: cddbd v1.5.2PL0 Copyright (c) Steve Scherf et al.
# Submitted via: CDex 1.51
#
DISCID=0f0ef812
DTITLE=John Lee Hooker - The Solid Gold Collection - 36 Blues Masterpieces  [CD 2-2]
DYEAR=2005
DGENRE=Blues
TTITLE0=It Serves Me Right To Suffer
TTITLE1=Whiskey And Wimmen
TTITLE2=This Is Hip
TTITLE3=Tupelo Blues  (Live)
TTITLE4=When My First Wife Quit Me  (Live)
TTITLE5=I See You When You're Weak
TTITLE6=House Rent Boogie
TTITLE7=Freight Train Be My Friend
TTITLE8=Graveyard Blues
TTITLE9=Mama, You've Got A Daughter
TTITLE10=T.B. Sheets
TTITLE11=She's Long, She's Tall, She Weeps Like A Willow Tree
TTITLE12=Want Ad Blues
TTITLE13=Process
TTITLE14=Poor Me
TTITLE15=One Room Country Shack
TTITLE16=No Shoes
TTITLE17=Nightmare Blues
EXTD=YEAR: 2005
EXTT0=
EXTT1=
EXTT2=
EXTT3=
EXTT4=
EXTT5=
EXTT6=
EXTT7=
EXTT8=
EXTT9=
EXTT10=
EXTT11=
EXTT12=
EXTT13=
EXTT14=
EXTT15=
EXTT16=
EXTT17=
PLAYORDER=
